<?xml version="1.0" encoding="UTF-8" standalone="no"?>
<!-- Created with Inkscape (http://www.inkscape.org/) -->

<svg
   width="67.325996mm"
   height="67.32505mm"
   viewBox="0 0 67.325996 67.32505"
   version="1.1"
   id="svg1"
   inkscape:export-filename="logo.svg"
   inkscape:export-xdpi="96"
   inkscape:export-ydpi="96"
   xmlns:inkscape="http://www.inkscape.org/namespaces/inkscape"
   xmlns:sodipodi="http://sodipodi.sourceforge.net/DTD/sodipodi-0.dtd"
   xmlns="http://www.w3.org/2000/svg"
   xmlns:svg="http://www.w3.org/2000/svg">
  <sodipodi:namedview
     id="namedview1"
     pagecolor="#ffffff"
     bordercolor="#000000"
     borderopacity="0.25"
     inkscape:showpageshadow="2"
     inkscape:pageopacity="0.0"
     inkscape:pagecheckerboard="0"
     inkscape:deskcolor="#d1d1d1"
     inkscape:document-units="mm"
     inkscape:clip-to-page="false">
    <inkscape:page
       x="0"
       y="0"
       width="67.325996"
       height="67.32505"
       id="page2"
       margin="0"
       bleed="0" />
  </sodipodi:namedview>
  <defs
     id="defs1" />
  <g
     inkscape:label="Layer 1"
     inkscape:groupmode="layer"
     id="layer1"
     transform="translate(-58.814281,-85.087207)">
    <path
       id="pXkKmyf2d"
       d="m 86.651038,142.18708 c -2.989791,-0.74084 -5.053541,-3.6248 -5.344583,-7.51417 -0.185208,-2.48708 0.370417,-4.60375 2.010833,-7.75229 1.905,-3.62479 4.074583,-6.27062 10.001249,-12.27667 5.159375,-5.23874 6.667499,-6.87916 6.297083,-6.87916 -0.105834,0 -0.926042,0.635 -1.799167,1.40229 -0.899583,0.76729 -3.307291,2.72521 -5.344582,4.31271 -4.736041,3.70416 -6.6675,5.50333 -8.598958,8.09625 -2.143124,2.8575 -3.545416,5.31812 -4.339166,7.64645 l -0.661458,1.95792 -1.058333,-2.27542 c -1.375833,-2.91041 -1.878542,-5.05354 -1.878542,-8.01687 0,-4.31271 1.402292,-8.04333 4.153958,-11.00666 2.883958,-3.12209 7.328958,-5.50334 14.049373,-7.54063 6.588125,-1.95792 8.678335,-2.936874 11.086045,-5.238748 l 1.40229,-1.322917 0.66146,1.455208 c 2.75166,6.006037 2.56645,15.504577 -0.42334,22.542497 -1.74625,4.10104 -4.1275,7.09083 -7.328955,9.18104 -3.307291,2.16958 -6.376458,3.04271 -11.694582,3.33375 l -3.122083,0.15875 -0.15875,0.79375 c -0.582083,2.93688 0.238125,5.31812 2.619375,7.56708 0.79375,0.76729 1.455208,1.42875 1.455208,1.50813 0,0.15875 -1.058333,0.0794 -1.984375,-0.13229 z"
       style="fill:#1f9438;fill-opacity:1;stroke:none;stroke-opacity:1" />
    <ellipse
       style="fill:none;fill-opacity:1;stroke:#1f9438;stroke-width:5.656;stroke-dasharray:none;stroke-opacity:1;paint-order:stroke fill markers"
       id="path1"
       cx="92.47728"
       cy="118.74973"
       rx="30.834999"
       ry="30.834526" />
    <path
       sodipodi:type="star"
       style="fill:#1f9438;fill-opacity:1;stroke:none;stroke-width:0.264583;stroke-opacity:1;paint-order:stroke fill markers"
       id="path3"
       inkscape:flatsided="false"
       sodipodi:sides="3"
       sodipodi:cx="104.00028"
       sodipodi:cy="131.82307"
       sodipodi:r1="13.711562"
       sodipodi:r2="6.8557806"
       sodipodi:arg1="1.0387624"
       sodipodi:arg2="2.0859599"
       inkscape:rounded="0"
       inkscape:randomized="0"
       d="m 110.95598,143.63938 -10.33338,-5.85032 -10.333392,-5.85033 10.233222,-6.02381 10.23323,-6.02381 0.10016,11.87414 z"
       inkscape:transform-center-x="2.6974821"
       inkscape:transform-center-y="0.38427526"
       transform="matrix(0.88350125,0.06350603,-0.06350603,0.88350125,33.003481,13.230993)" />
  </g>
</svg>
