<svg xmlns="http://www.w3.org/2000/svg" viewBox="0 0 568 532" width="568" height="532">
	<defs>
		<clipPath clipPathUnits="userSpaceOnUse" id="cp1">
			<path d="M-506 -150L1094 -150L1094 750L-506 750Z" />
		</clipPath>
	</defs>
	<style>
		tspan { white-space:pre }
		.shp0 { fill: #ffffff } 
	</style>
	<g clip-path="url(#cp1)">
		<path fill-rule="evenodd" class="shp0" d="M40.4 519.84L40.4 493.45L40.25 493.45L28.15 519.84L27.45 519.84L15.4 493.45L15.28 493.45L15.28 519.84L14.43 519.84L14.43 492.48L15.94 492.48L27.84 518.61L39.74 492.48L41.25 492.48L41.25 519.84L40.4 519.84ZM68.77 492.48L69.62 492.48L69.62 519.84L68.77 519.84L68.77 492.48ZM98.02 505.04L111.78 492.48L113.02 492.48L99.1 505.04L113.71 519.84L112.51 519.84L98.02 505.12L97.98 505.12L97.98 519.84L97.13 519.84L97.13 492.48L97.98 492.48L97.98 505.04L98.02 505.04ZM138.29 519.84L138.29 492.48L154.25 492.48L154.25 493.26L139.14 493.26L139.14 505.27L153.36 505.27L153.36 506.05L139.14 506.05L139.14 519.07L154.87 519.07L154.87 519.84L138.29 519.84ZM180.42 492.48L181.27 492.48L181.27 519.84L180.42 519.84L180.42 492.48ZM208.78 519.84L208.78 492.48L209.63 492.48L209.63 519.07L223.24 519.07L223.24 519.84L208.78 519.84ZM267.37 519.84L264.12 512L248.24 512L244.88 519.84L243.95 519.84L255.82 492.48L256.9 492.48L268.3 519.84L267.37 519.84ZM256.32 493.02L248.55 511.26L263.85 511.26L256.32 493.02ZM337.9 512.54C337.9 514.01 337.63 515.21 337.07 516.15C336.52 517.09 335.81 517.83 334.95 518.37C334.08 518.91 333.13 519.3 332.09 519.51C331.04 519.73 330.04 519.84 329.09 519.84L320.7 519.84L320.7 492.48L328.16 492.48C329.19 492.48 330.22 492.58 331.24 492.79C332.25 493 333.16 493.34 333.96 493.83C334.76 494.32 335.4 494.98 335.89 495.8C336.38 496.63 336.63 497.67 336.63 498.93C336.63 499.91 336.47 500.76 336.16 501.49C335.85 502.21 335.43 502.82 334.91 503.34C334.38 503.86 333.78 504.27 333.11 504.6C332.44 504.92 331.76 505.16 331.06 505.31L331.06 505.39C331.76 505.47 332.5 505.65 333.3 505.95C334.1 506.25 334.84 506.68 335.53 507.24C336.21 507.81 336.77 508.53 337.23 509.41C337.68 510.28 337.9 511.33 337.9 512.54ZM335.78 499.05C335.78 497.94 335.56 497.02 335.12 496.27C334.68 495.52 334.1 494.93 333.38 494.49C332.66 494.05 331.83 493.74 330.89 493.54C329.95 493.35 328.96 493.25 327.93 493.25L321.55 493.25L321.55 505.04L328.12 505.04C329.05 505.04 329.97 504.92 330.89 504.69C331.8 504.46 332.62 504.11 333.34 503.63C334.06 503.15 334.65 502.54 335.1 501.78C335.55 501.02 335.78 500.11 335.78 499.05ZM337.05 512.65C337.05 511.42 336.8 510.36 336.3 509.49C335.8 508.61 335.16 507.9 334.39 507.36C333.61 506.82 332.76 506.43 331.83 506.18C330.91 505.94 330.01 505.81 329.13 505.81L321.55 505.81L321.55 519.07L328.7 519.07C329.89 519.07 331 518.95 332.03 518.7C333.06 518.46 333.94 518.08 334.68 517.56C335.41 517.05 335.99 516.38 336.41 515.57C336.84 514.76 337.05 513.79 337.05 512.65ZM390.5 506.16C390.5 508.27 390.15 510.21 389.44 511.98C388.73 513.74 387.75 515.26 386.5 516.54C385.25 517.81 383.76 518.81 382.04 519.53C380.31 520.25 378.44 520.62 376.43 520.62C374.42 520.62 372.55 520.25 370.83 519.53C369.1 518.81 367.61 517.81 366.36 516.54C365.11 515.26 364.14 513.74 363.43 511.98C362.72 510.21 362.36 508.27 362.36 506.16C362.36 504.05 362.72 502.11 363.43 500.35C364.14 498.58 365.11 497.06 366.36 495.79C367.61 494.51 369.1 493.51 370.81 492.79C372.52 492.07 374.4 491.71 376.43 491.71C378.47 491.71 380.34 492.07 382.06 492.79C383.77 493.51 385.25 494.51 386.5 495.79C387.75 497.06 388.73 498.58 389.44 500.35C390.15 502.11 390.5 504.05 390.5 506.16ZM389.65 506.16C389.65 504.26 389.33 502.47 388.68 500.81C388.04 499.15 387.13 497.7 385.96 496.46C384.79 495.22 383.39 494.25 381.77 493.54C380.14 492.83 378.36 492.48 376.43 492.48C374.5 492.48 372.72 492.83 371.1 493.54C369.48 494.25 368.08 495.22 366.91 496.46C365.73 497.7 364.82 499.15 364.18 500.81C363.54 502.47 363.22 504.26 363.22 506.16C363.22 508.07 363.53 509.85 364.16 511.51C364.79 513.18 365.69 514.62 366.85 515.86C368.01 517.1 369.4 518.07 371.02 518.78C372.65 519.49 374.45 519.84 376.43 519.84C378.42 519.84 380.22 519.49 381.84 518.78C383.47 518.07 384.86 517.1 386.02 515.86C387.18 514.62 388.07 513.18 388.7 511.51C389.33 509.85 389.65 508.07 389.65 506.16ZM432.24 519.84L423.97 506.05L417.55 506.05L417.55 519.84L416.7 519.84L416.7 492.48L424.28 492.48C425.28 492.48 426.3 492.57 427.33 492.75C428.36 492.93 429.28 493.27 430.09 493.78C430.9 494.28 431.57 494.97 432.08 495.84C432.6 496.72 432.86 497.85 432.86 499.24C432.86 500.53 432.61 501.6 432.12 502.45C431.63 503.3 431 503.99 430.23 504.52C429.46 505.05 428.6 505.43 427.66 505.66C426.72 505.89 425.8 506.01 424.9 506.01L433.2 519.84L432.24 519.84ZM432.01 499.24C432.01 498.06 431.77 497.07 431.31 496.29C430.85 495.5 430.23 494.88 429.47 494.43C428.71 493.98 427.84 493.67 426.85 493.49C425.85 493.31 424.84 493.21 423.81 493.21L417.55 493.21L417.55 505.31L424.24 505.31C426.76 505.31 428.69 504.78 430.02 503.73C431.34 502.67 432.01 501.18 432.01 499.24ZM477.83 519.88C476.18 520.37 474.27 520.62 472.11 520.62C469.94 520.62 467.96 520.24 466.18 519.5C464.4 518.75 462.88 517.72 461.62 516.42C460.35 515.12 459.38 513.59 458.69 511.82C458.01 510.06 457.67 508.15 457.67 506.09C457.67 504.02 458.02 502.11 458.71 500.35C459.41 498.58 460.38 497.06 461.63 495.79C462.88 494.51 464.38 493.51 466.13 492.79C467.88 492.07 469.82 491.71 471.93 491.71C473.78 491.71 475.48 491.99 477.03 492.56C478.58 493.13 479.94 493.9 481.13 494.88L480.51 495.5C479.99 495.01 479.39 494.57 478.71 494.2C478.03 493.83 477.31 493.51 476.55 493.25C475.79 493 475.01 492.8 474.21 492.67C473.41 492.55 472.64 492.48 471.89 492.48C469.88 492.48 468.05 492.84 466.4 493.54C464.75 494.25 463.34 495.22 462.17 496.46C461 497.7 460.1 499.14 459.46 500.79C458.83 502.44 458.52 504.2 458.52 506.09C458.52 507.97 458.83 509.74 459.45 511.42C460.06 513.09 460.96 514.55 462.13 515.8C463.3 517.05 464.73 518.04 466.42 518.76C468.11 519.48 470.02 519.84 472.16 519.84C474.01 519.84 475.66 519.65 477.11 519.26C478.55 518.88 479.88 518.39 481.09 517.8L481.09 507.05L473.98 507.05L473.98 506.32L481.94 506.32L481.94 518.26C480.85 518.85 479.49 519.39 477.83 519.88ZM509.03 492.48L509.88 492.48L509.88 519.84L509.03 519.84L509.03 492.48ZM557.41 519.84L554.17 512L538.28 512L534.92 519.84L533.99 519.84L545.86 492.48L546.94 492.48L558.34 519.84L557.41 519.84ZM546.36 493.02L538.59 511.26L553.9 511.26L546.36 493.02ZM492.51 304.38C492.51 372.28 447.92 396.37 409.74 396.37L295.62 396.37C287.46 396.37 280.84 389.75 280.84 381.59L280.84 373.97L285.25 364.28L361.1 202.24L393.55 202.24L316.65 366.81L409.74 366.81C425.74 366.81 462.95 360.73 462.95 304.38C462.95 263.59 440.2 249.79 430.42 245.75C429.98 245.57 429.57 245.34 429.16 245.12L402.16 234.07L427.21 220.27C427.77 219.85 428.37 219.46 429 219.12C445.66 210.04 454.11 193.32 454.11 169.44C454.11 120.37 417.98 115.08 402.44 115.08L371.17 115.08L227.27 431.51L227.27 359.28L338.78 115.08L338.61 115.08L351.86 85.52L375.57 85.52C399.12 85.52 450.65 85.52 468.1 116.06C477.61 128.96 483.66 146.43 483.66 169.44C483.66 199.34 473.2 218.62 461.71 230.77C476.37 243.13 492.51 265.56 492.51 304.38ZM294.78 138.28L216.43 313.01C214.05 318.32 208.77 321.74 202.94 321.74L202.94 321.74C197.11 321.73 191.83 318.31 189.45 312.99L125.05 168.84L125.05 341.89L95.5 341.89L95.5 99.54C95.5 92.57 100.37 86.54 107.19 85.09C114.01 83.64 120.92 87.15 123.76 93.52L202.97 270.79L322.93 13.13L319.47 85.52L294.78 138.28Z" />
	</g>
</svg>