<svg xmlns="http://www.w3.org/2000/svg" viewBox="0 0 414 420" width="414" height="420">
	<defs>
		<clipPath clipPathUnits="userSpaceOnUse" id="cp1">
			<path d="M-591 -161L1009 -161L1009 739L-591 739L-591 -161Z" />
		</clipPath>
	</defs>
	<style>
		tspan { white-space:pre }
		.shp0 { fill: #ffffff } 
	</style>
	<g id="Clip-Path" clip-path="url(#cp1)">
		<g id="Layer">
			<path id="Layer" fill-rule="evenodd" class="shp0" d="M-44.6 508.84L-44.6 482.45L-44.75 482.45L-56.85 508.84L-57.55 508.84L-69.6 482.45L-69.72 482.45L-69.72 508.84L-70.57 508.84L-70.57 481.48L-69.06 481.48L-57.16 507.61L-45.26 481.48L-43.75 481.48L-43.75 508.84L-44.6 508.84ZM-16.23 481.48L-15.38 481.48L-15.38 508.84L-16.23 508.84L-16.23 481.48ZM13.02 494.04L26.78 481.48L28.02 481.48L14.1 494.04L28.71 508.84L27.51 508.84L13.02 494.12L12.98 494.12L12.98 508.84L12.13 508.84L12.13 481.48L12.98 481.48L12.98 494.04L13.02 494.04ZM53.29 508.84L53.29 481.48L69.25 481.48L69.25 482.26L54.14 482.26L54.14 494.27L68.36 494.27L68.36 495.05L54.14 495.05L54.14 508.07L69.87 508.07L69.87 508.84L53.29 508.84ZM95.42 481.48L96.27 481.48L96.27 508.84L95.42 508.84L95.42 481.48ZM123.78 508.84L123.78 481.48L124.63 481.48L124.63 508.07L138.24 508.07L138.24 508.84L123.78 508.84ZM182.37 508.84L179.12 501L163.24 501L159.88 508.84L158.95 508.84L170.82 481.48L171.9 481.48L183.3 508.84L182.37 508.84ZM171.32 482.02L163.55 500.26L178.85 500.26L171.32 482.02ZM252.9 501.54C252.9 503.01 252.63 504.21 252.07 505.15C251.52 506.09 250.81 506.83 249.95 507.37C249.08 507.91 248.13 508.3 247.09 508.51C246.04 508.73 245.04 508.84 244.09 508.84L235.7 508.84L235.7 481.48L243.16 481.48C244.19 481.48 245.22 481.58 246.24 481.79C247.25 482 248.16 482.34 248.96 482.83C249.76 483.32 250.4 483.98 250.89 484.8C251.38 485.63 251.63 486.67 251.63 487.93C251.63 488.91 251.47 489.76 251.16 490.49C250.85 491.21 250.43 491.82 249.91 492.34C249.38 492.86 248.78 493.27 248.11 493.6C247.44 493.92 246.76 494.16 246.06 494.31L246.06 494.39C246.76 494.47 247.5 494.65 248.3 494.95C249.1 495.25 249.84 495.68 250.53 496.24C251.21 496.81 251.77 497.53 252.23 498.41C252.68 499.28 252.9 500.33 252.9 501.54ZM250.78 488.05C250.78 486.94 250.56 486.02 250.12 485.27C249.68 484.52 249.1 483.93 248.38 483.49C247.66 483.05 246.83 482.74 245.89 482.54C244.95 482.35 243.96 482.25 242.93 482.25L236.55 482.25L236.55 494.04L243.12 494.04C244.05 494.04 244.97 493.92 245.89 493.69C246.8 493.46 247.62 493.11 248.34 492.63C249.06 492.15 249.65 491.54 250.1 490.78C250.55 490.02 250.78 489.11 250.78 488.05ZM252.05 501.65C252.05 500.42 251.8 499.36 251.3 498.49C250.8 497.61 250.16 496.9 249.39 496.36C248.61 495.82 247.76 495.43 246.83 495.18C245.91 494.94 245.01 494.81 244.13 494.81L236.55 494.81L236.55 508.07L243.7 508.07C244.89 508.07 246 507.95 247.03 507.7C248.06 507.46 248.94 507.08 249.68 506.56C250.41 506.05 250.99 505.38 251.41 504.57C251.84 503.76 252.05 502.79 252.05 501.65ZM305.5 495.16C305.5 497.27 305.15 499.21 304.44 500.98C303.73 502.74 302.75 504.26 301.5 505.54C300.25 506.81 298.76 507.81 297.04 508.53C295.31 509.25 293.44 509.62 291.43 509.62C289.42 509.62 287.55 509.25 285.83 508.53C284.1 507.81 282.61 506.81 281.36 505.54C280.11 504.26 279.14 502.74 278.43 500.98C277.72 499.21 277.36 497.27 277.36 495.16C277.36 493.05 277.72 491.11 278.43 489.35C279.14 487.58 280.11 486.06 281.36 484.79C282.61 483.51 284.1 482.51 285.81 481.79C287.52 481.07 289.4 480.71 291.43 480.71C293.47 480.71 295.34 481.07 297.06 481.79C298.77 482.51 300.25 483.51 301.5 484.79C302.75 486.06 303.73 487.58 304.44 489.35C305.15 491.11 305.5 493.05 305.5 495.16ZM304.65 495.16C304.65 493.26 304.33 491.47 303.68 489.81C303.04 488.15 302.13 486.7 300.96 485.46C299.79 484.22 298.39 483.25 296.77 482.54C295.14 481.83 293.36 481.48 291.43 481.48C289.5 481.48 287.72 481.83 286.1 482.54C284.48 483.25 283.08 484.22 281.91 485.46C280.73 486.7 279.82 488.15 279.18 489.81C278.54 491.47 278.22 493.26 278.22 495.16C278.22 497.07 278.53 498.85 279.16 500.51C279.79 502.18 280.69 503.62 281.85 504.86C283.01 506.1 284.4 507.07 286.02 507.78C287.65 508.49 289.45 508.84 291.43 508.84C293.42 508.84 295.22 508.49 296.84 507.78C298.47 507.07 299.86 506.1 301.02 504.86C302.18 503.62 303.07 502.18 303.7 500.51C304.33 498.85 304.65 497.07 304.65 495.16ZM347.24 508.84L338.97 495.05L332.55 495.05L332.55 508.84L331.7 508.84L331.7 481.48L339.28 481.48C340.28 481.48 341.3 481.57 342.33 481.75C343.36 481.93 344.28 482.27 345.09 482.78C345.9 483.28 346.57 483.97 347.08 484.84C347.6 485.72 347.86 486.85 347.86 488.24C347.86 489.53 347.61 490.6 347.12 491.45C346.63 492.3 346 492.99 345.23 493.52C344.46 494.05 343.6 494.43 342.66 494.66C341.72 494.89 340.8 495.01 339.9 495.01L348.2 508.84L347.24 508.84ZM347.01 488.24C347.01 487.06 346.77 486.07 346.31 485.29C345.85 484.5 345.23 483.88 344.47 483.43C343.71 482.98 342.84 482.67 341.85 482.49C340.85 482.31 339.84 482.21 338.81 482.21L332.55 482.21L332.55 494.31L339.24 494.31C341.76 494.31 343.69 493.78 345.02 492.73C346.34 491.67 347.01 490.18 347.01 488.24ZM392.83 508.88C391.18 509.37 389.27 509.62 387.11 509.62C384.94 509.62 382.96 509.24 381.18 508.5C379.4 507.75 377.88 506.72 376.62 505.42C375.35 504.12 374.38 502.59 373.69 500.82C373.01 499.06 372.67 497.15 372.67 495.09C372.67 493.02 373.02 491.11 373.71 489.35C374.41 487.58 375.38 486.06 376.63 484.79C377.88 483.51 379.38 482.51 381.13 481.79C382.88 481.07 384.82 480.71 386.93 480.71C388.78 480.71 390.48 480.99 392.03 481.56C393.58 482.13 394.94 482.9 396.13 483.88L395.51 484.5C394.99 484.01 394.39 483.57 393.71 483.2C393.03 482.83 392.31 482.51 391.55 482.25C390.79 482 390.01 481.8 389.21 481.67C388.41 481.55 387.64 481.48 386.89 481.48C384.88 481.48 383.05 481.84 381.4 482.54C379.75 483.25 378.34 484.22 377.17 485.46C376 486.7 375.1 488.14 374.46 489.79C373.83 491.44 373.52 493.2 373.52 495.09C373.52 496.97 373.83 498.74 374.45 500.42C375.06 502.09 375.96 503.55 377.13 504.8C378.3 506.05 379.73 507.04 381.42 507.76C383.11 508.48 385.02 508.84 387.16 508.84C389.01 508.84 390.66 508.65 392.11 508.26C393.55 507.88 394.88 507.39 396.09 506.8L396.09 496.05L388.98 496.05L388.98 495.32L396.94 495.32L396.94 507.26C395.85 507.85 394.49 508.39 392.83 508.88ZM424.03 481.48L424.88 481.48L424.88 508.84L424.03 508.84L424.03 481.48ZM472.41 508.84L469.17 501L453.28 501L449.92 508.84L448.99 508.84L460.86 481.48L461.94 481.48L473.34 508.84L472.41 508.84ZM461.36 482.02L453.59 500.26L468.9 500.26L461.36 482.02ZM407.51 293.38C407.51 361.28 362.92 385.37 324.74 385.37L210.62 385.37C202.46 385.37 195.84 378.75 195.84 370.59L195.84 362.97L200.25 353.28L276.1 191.24L308.55 191.24L231.65 355.81L324.74 355.81C340.74 355.81 377.95 349.73 377.95 293.38C377.95 252.59 355.2 238.79 345.42 234.75C344.98 234.57 344.57 234.34 344.16 234.12L317.16 223.07L342.21 209.27C342.77 208.85 343.37 208.46 344 208.12C360.66 199.04 369.11 182.32 369.11 158.44C369.11 109.37 332.98 104.08 317.44 104.08L286.17 104.08L142.27 420.51L142.27 348.28L253.78 104.08L253.61 104.08L266.86 74.52L290.57 74.52C314.12 74.52 365.65 74.52 383.1 105.06C392.61 117.96 398.66 135.43 398.66 158.44C398.66 188.34 388.2 207.62 376.71 219.77C391.37 232.13 407.51 254.56 407.51 293.38ZM209.78 127.28L131.43 302.01C129.05 307.32 123.77 310.74 117.94 310.74C112.11 310.73 106.83 307.31 104.45 301.99L40.05 157.84L40.05 330.89L10.5 330.89L10.5 88.54C10.5 81.57 15.37 75.54 22.19 74.09C29.01 72.64 35.92 76.15 38.76 82.52L117.97 259.79L237.93 2.13L234.47 74.52L209.78 127.28Z" />
		</g>
	</g>
</svg>